<?xml version="1.0" encoding="UTF-8"?>
<!DOCTYPE svg PUBLIC "-//W3C//DTD SVG 1.1//EN" "http://www.w3.org/Graphics/SVG/1.1/DTD/svg11.dtd">
<svg xmlns="http://www.w3.org/2000/svg" version="1.1" width="225px" height="225px" style="shape-rendering:geometricPrecision; text-rendering:geometricPrecision; image-rendering:optimizeQuality; fill-rule:evenodd; clip-rule:evenodd" xmlns:xlink="http://www.w3.org/1999/xlink">
<g><path style="opacity:1" fill="#fefefe" d="M -0.5,-0.5 C 74.5,-0.5 149.5,-0.5 224.5,-0.5C 224.5,74.5 224.5,149.5 224.5,224.5C 149.5,224.5 74.5,224.5 -0.5,224.5C -0.5,149.5 -0.5,74.5 -0.5,-0.5 Z"/></g>
<g><path style="opacity:1" fill="#3deff7" d="M 128.5,61.5 C 128.5,62.5 128.5,63.5 128.5,64.5C 101.297,57.6901 80.1305,66.0235 65,89.5C 63.0413,93.9044 61.208,98.2378 59.5,102.5C 59.631,101.761 59.4643,101.094 59,100.5C 56.8454,107.309 56.0121,114.309 56.5,121.5C 55.1772,87.7397 71.1772,66.9064 104.5,59C 112.731,57.9914 120.731,58.8248 128.5,61.5 Z"/></g>
<g><path style="opacity:1" fill="#fbfdfd" d="M 128.5,64.5 C 141.627,68.7136 151.627,76.7136 158.5,88.5C 161.73,94.6038 164.064,100.937 165.5,107.5C 165.778,114.942 165.112,122.276 163.5,129.5C 153.208,157.991 132.874,170.824 102.5,168C 95.0109,166.251 88.0109,163.418 81.5,159.5C 75.1104,154.443 69.777,148.443 65.5,141.5C 62.3096,136.263 60.3096,130.596 59.5,124.5C 58.2172,117.172 58.2172,109.838 59.5,102.5C 61.208,98.2378 63.0413,93.9044 65,89.5C 80.1305,66.0235 101.297,57.6901 128.5,64.5 Z"/></g>
<g><path style="opacity:1" fill="#3bd9f8" d="M 128.5,61.5 C 143.076,65.4426 153.743,74.1093 160.5,87.5C 159.075,85.9689 158.409,86.3023 158.5,88.5C 151.627,76.7136 141.627,68.7136 128.5,64.5C 128.5,63.5 128.5,62.5 128.5,61.5 Z"/></g>
<g><path style="opacity:1" fill="#2ca9f7" d="M 160.5,87.5 C 164.204,93.2575 166.537,99.5908 167.5,106.5C 166.833,106.833 166.167,107.167 165.5,107.5C 164.064,100.937 161.73,94.6038 158.5,88.5C 158.409,86.3023 159.075,85.9689 160.5,87.5 Z"/></g>
<g><path style="opacity:1" fill="#39dbf8" d="M 75.5,122.5 C 74.8333,122.167 74.1667,121.833 73.5,121.5C 76.5014,110.659 82.1681,101.493 90.5,94C 97.5067,89.5948 102.673,91.0948 106,98.5C 106.188,92.2518 106.688,86.0851 107.5,80C 107.833,79.8333 108.167,79.6667 108.5,79.5C 109.896,87.2242 109.73,94.8909 108,102.5C 104.999,107.003 100.833,109.669 95.5,110.5C 95.281,109.325 95.6143,108.325 96.5,107.5C 105.081,104.204 105.747,99.8707 98.5,94.5C 91.7396,96.4255 86.5729,100.425 83,106.5C 80.5749,111.978 78.0749,117.312 75.5,122.5 Z"/></g>
<g><path style="opacity:1" fill="#32cdf7" d="M 144.5,107.5 C 143.508,107.328 142.842,107.662 142.5,108.5C 138.65,101.652 132.983,96.9849 125.5,94.5C 118.253,99.8707 118.919,104.204 127.5,107.5C 128.386,108.325 128.719,109.325 128.5,110.5C 122.086,109.259 117.586,105.592 115,99.5C 114.169,92.8085 114.336,86.1418 115.5,79.5C 116.086,79.7093 116.586,80.0426 117,80.5C 117.333,86.5 117.667,92.5 118,98.5C 120.221,92.1379 124.388,90.3046 130.5,93C 136.715,96.3812 141.382,101.214 144.5,107.5 Z"/></g>
<g><path style="opacity:1" fill="#2297f8" d="M 144.5,107.5 C 146.441,111.048 148.107,114.714 149.5,118.5C 148.222,118.218 147.222,117.551 146.5,116.5C 144.659,114.151 143.326,111.485 142.5,108.5C 142.842,107.662 143.508,107.328 144.5,107.5 Z"/></g>
<g><path style="opacity:1" fill="#42b3f7" d="M 120.5,128.5 C 120.138,123.579 119.138,118.913 117.5,114.5C 117.119,113.069 116.119,112.236 114.5,112C 112.101,111.289 109.768,111.456 107.5,112.5C 106.516,115.428 106.183,118.428 106.5,121.5C 104.917,123.508 103.917,125.841 103.5,128.5C 103.5,123.833 103.5,119.167 103.5,114.5C 101.712,114.785 100.045,114.452 98.5,113.5C 100.416,111.683 102.749,110.516 105.5,110C 112.677,108.648 119.344,109.814 125.5,113.5C 123.994,114.747 122.494,114.747 121,113.5C 120.501,118.489 120.334,123.489 120.5,128.5 Z"/></g>
<g><path style="opacity:1" fill="#2dc5f9" d="M 59.5,102.5 C 58.2172,109.838 58.2172,117.172 59.5,124.5C 58.7784,124.082 58.2784,123.416 58,122.5C 57.51,123.793 57.3433,125.127 57.5,126.5C 56.5489,125.081 56.2155,123.415 56.5,121.5C 56.0121,114.309 56.8454,107.309 59,100.5C 59.4643,101.094 59.631,101.761 59.5,102.5 Z"/></g>
<g><path style="opacity:1" fill="#3080f4" d="M 167.5,106.5 C 168.978,115.098 168.311,123.431 165.5,131.5C 164.833,130.833 164.167,130.167 163.5,129.5C 165.112,122.276 165.778,114.942 165.5,107.5C 166.167,107.167 166.833,106.833 167.5,106.5 Z"/></g>
<g><path style="opacity:1" fill="#1388f7" d="M 117.5,114.5 C 119.138,118.913 120.138,123.579 120.5,128.5C 120.5,129.5 120.5,130.5 120.5,131.5C 119.833,131.833 119.167,132.167 118.5,132.5C 117.545,126.591 117.211,120.591 117.5,114.5 Z"/></g>
<g><path style="opacity:1" fill="#4473f2" d="M 146.5,116.5 C 147.222,117.551 148.222,118.218 149.5,118.5C 151.123,122.327 152.123,126.327 152.5,130.5C 151.687,132.261 150.687,133.928 149.5,135.5C 149.619,128.979 148.619,122.645 146.5,116.5 Z"/></g>
<g><path style="opacity:1" fill="#38adf7" d="M 73.5,121.5 C 74.1667,121.833 74.8333,122.167 75.5,122.5C 73.8516,128.409 74.1849,134.076 76.5,139.5C 75.8333,139.833 75.1667,140.167 74.5,140.5C 73.2101,139.942 72.3768,138.942 72,137.5C 71.0705,131.98 71.5705,126.647 73.5,121.5 Z"/></g>
<g><path style="opacity:1" fill="#23a8f8" d="M 59.5,124.5 C 60.3096,130.596 62.3096,136.263 65.5,141.5C 64.5084,141.328 63.8417,141.662 63.5,142.5C 60.1323,137.736 58.1323,132.403 57.5,126.5C 57.3433,125.127 57.51,123.793 58,122.5C 58.2784,123.416 58.7784,124.082 59.5,124.5 Z"/></g>
<g><path style="opacity:1" fill="#2c82f7" d="M 106.5,121.5 C 108.185,137.318 101.018,144.985 85,144.5C 80.8318,144.615 77.3318,143.282 74.5,140.5C 75.1667,140.167 75.8333,139.833 76.5,139.5C 82.6931,141.964 89.0265,142.131 95.5,140C 101.144,138.196 103.811,134.362 103.5,128.5C 103.917,125.841 104.917,123.508 106.5,121.5 Z"/></g>
<g><path style="opacity:1" fill="#6057ea" d="M 152.5,130.5 C 152.822,140.343 147.989,145.01 138,144.5C 130.994,144.661 124.994,142.327 120,137.5C 119.392,135.846 118.892,134.179 118.5,132.5C 119.167,132.167 119.833,131.833 120.5,131.5C 122.252,137.411 126.252,140.578 132.5,141C 136.5,141.667 140.5,141.667 144.5,141C 147.421,140.248 149.087,138.415 149.5,135.5C 150.687,133.928 151.687,132.261 152.5,130.5 Z"/></g>
<g><path style="opacity:1" fill="#2583f4" d="M 65.5,141.5 C 69.777,148.443 75.1104,154.443 81.5,159.5C 80.6618,159.842 80.3284,160.508 80.5,161.5C 73.0431,156.713 67.3764,150.38 63.5,142.5C 63.8417,141.662 64.5084,141.328 65.5,141.5 Z"/></g>
<g><path style="opacity:1" fill="#6256e8" d="M 163.5,129.5 C 164.167,130.167 164.833,130.833 165.5,131.5C 155.087,159.721 134.754,172.887 104.5,171C 95.6994,169.763 87.6994,166.596 80.5,161.5C 80.3284,160.508 80.6618,159.842 81.5,159.5C 88.0109,163.418 95.0109,166.251 102.5,168C 132.874,170.824 153.208,157.991 163.5,129.5 Z"/></g>
</svg>
